<mxfile host="app.diagrams.net" agent="Mozilla/5.0 (Windows NT 10.0; Win64; x64) AppleWebKit/537.36 (KHTML, like Gecko) Chrome/131.0.0.0 Safari/537.36" version="24.7.17">
  <diagram name="Page-1" id="yZxIClkG_pbMfnHqae-Y">
    <mxGraphModel dx="2835" dy="1903" grid="1" gridSize="10" guides="1" tooltips="1" connect="1" arrows="1" fold="1" page="1" pageScale="1" pageWidth="850" pageHeight="1100" math="0" shadow="0">
      <root>
        <mxCell id="0" />
        <mxCell id="1" parent="0" />
        <mxCell id="SqqY0Kf9Ykl1BagwD4mv-113" value="" style="shape=link;html=1;rounded=0;entryX=0.5;entryY=0;entryDx=0;entryDy=0;exitX=0.715;exitY=0.993;exitDx=0;exitDy=0;exitPerimeter=0;" parent="1" source="SqqY0Kf9Ykl1BagwD4mv-5" target="SqqY0Kf9Ykl1BagwD4mv-82" edge="1">
          <mxGeometry relative="1" as="geometry">
            <mxPoint x="150" y="570" as="sourcePoint" />
            <mxPoint x="310" y="570" as="targetPoint" />
          </mxGeometry>
        </mxCell>
        <mxCell id="SqqY0Kf9Ykl1BagwD4mv-114" value="1" style="resizable=0;html=1;whiteSpace=wrap;align=right;verticalAlign=bottom;" parent="SqqY0Kf9Ykl1BagwD4mv-113" connectable="0" vertex="1">
          <mxGeometry x="1" relative="1" as="geometry">
            <mxPoint x="15" y="-5" as="offset" />
          </mxGeometry>
        </mxCell>
        <mxCell id="SqqY0Kf9Ykl1BagwD4mv-1" value="Routes&amp;nbsp;" style="rounded=0;whiteSpace=wrap;html=1;" parent="1" vertex="1">
          <mxGeometry x="-170" y="160" width="120" height="60" as="geometry" />
        </mxCell>
        <mxCell id="SqqY0Kf9Ykl1BagwD4mv-2" value="Cities" style="rounded=0;whiteSpace=wrap;html=1;" parent="1" vertex="1">
          <mxGeometry x="-240" y="380" width="120" height="60" as="geometry" />
        </mxCell>
        <mxCell id="SqqY0Kf9Ykl1BagwD4mv-3" value="Planes&amp;nbsp;" style="rounded=0;whiteSpace=wrap;html=1;" parent="1" vertex="1">
          <mxGeometry x="255" y="150" width="120" height="60" as="geometry" />
        </mxCell>
        <mxCell id="SqqY0Kf9Ykl1BagwD4mv-4" value="Users&amp;nbsp;" style="rounded=0;whiteSpace=wrap;html=1;" parent="1" vertex="1">
          <mxGeometry x="410" y="360" width="120" height="60" as="geometry" />
        </mxCell>
        <mxCell id="SqqY0Kf9Ykl1BagwD4mv-5" value="Bookings&amp;nbsp;" style="rounded=0;whiteSpace=wrap;html=1;" parent="1" vertex="1">
          <mxGeometry x="120" y="340" width="120" height="60" as="geometry" />
        </mxCell>
        <mxCell id="SqqY0Kf9Ykl1BagwD4mv-6" value="" style="rounded=0;whiteSpace=wrap;html=1;" parent="1" vertex="1">
          <mxGeometry x="260" y="580" width="120" height="60" as="geometry" />
        </mxCell>
        <mxCell id="SqqY0Kf9Ykl1BagwD4mv-7" value="BookingDetails" style="rounded=0;whiteSpace=wrap;html=1;" parent="1" vertex="1">
          <mxGeometry x="265" y="585" width="110" height="50" as="geometry" />
        </mxCell>
        <mxCell id="SqqY0Kf9Ykl1BagwD4mv-8" value="&lt;u&gt;id&lt;/u&gt;" style="ellipse;whiteSpace=wrap;html=1;" parent="1" vertex="1">
          <mxGeometry x="-280" y="190" width="70" height="40" as="geometry" />
        </mxCell>
        <mxCell id="SqqY0Kf9Ykl1BagwD4mv-9" value="Frequency" style="ellipse;whiteSpace=wrap;html=1;" parent="1" vertex="1">
          <mxGeometry x="-160" y="-60" width="80" height="50" as="geometry" />
        </mxCell>
        <mxCell id="SqqY0Kf9Ykl1BagwD4mv-10" value="Departure Time&amp;nbsp;" style="ellipse;whiteSpace=wrap;html=1;" parent="1" vertex="1">
          <mxGeometry x="-40" y="20" width="100" height="60" as="geometry" />
        </mxCell>
        <mxCell id="SqqY0Kf9Ykl1BagwD4mv-11" value="Arrival Time&amp;nbsp;" style="ellipse;whiteSpace=wrap;html=1;" parent="1" vertex="1">
          <mxGeometry x="-115" y="60" width="80" height="60" as="geometry" />
        </mxCell>
        <mxCell id="SqqY0Kf9Ykl1BagwD4mv-12" value="Arrival Airport Code" style="ellipse;whiteSpace=wrap;html=1;" parent="1" vertex="1">
          <mxGeometry x="-260" y="30" width="80" height="60" as="geometry" />
        </mxCell>
        <mxCell id="SqqY0Kf9Ykl1BagwD4mv-13" value="Departure Airport Code" style="ellipse;whiteSpace=wrap;html=1;" parent="1" vertex="1">
          <mxGeometry x="-285" y="100" width="80" height="60" as="geometry" />
        </mxCell>
        <mxCell id="SqqY0Kf9Ykl1BagwD4mv-14" value="Base price&amp;nbsp;" style="ellipse;whiteSpace=wrap;html=1;" parent="1" vertex="1">
          <mxGeometry x="-20" y="90" width="80" height="60" as="geometry" />
        </mxCell>
        <mxCell id="SqqY0Kf9Ykl1BagwD4mv-19" value="" style="endArrow=none;html=1;rounded=0;exitX=1;exitY=1;exitDx=0;exitDy=0;entryX=0.25;entryY=0;entryDx=0;entryDy=0;" parent="1" source="SqqY0Kf9Ykl1BagwD4mv-12" target="SqqY0Kf9Ykl1BagwD4mv-1" edge="1">
          <mxGeometry width="50" height="50" relative="1" as="geometry">
            <mxPoint x="-170" y="150" as="sourcePoint" />
            <mxPoint x="-120" y="100" as="targetPoint" />
          </mxGeometry>
        </mxCell>
        <mxCell id="SqqY0Kf9Ykl1BagwD4mv-20" value="" style="endArrow=none;html=1;rounded=0;entryX=0;entryY=0.25;entryDx=0;entryDy=0;exitX=1;exitY=1;exitDx=0;exitDy=0;" parent="1" source="SqqY0Kf9Ykl1BagwD4mv-13" target="SqqY0Kf9Ykl1BagwD4mv-1" edge="1">
          <mxGeometry width="50" height="50" relative="1" as="geometry">
            <mxPoint x="-210" y="190" as="sourcePoint" />
            <mxPoint x="-160" y="140" as="targetPoint" />
          </mxGeometry>
        </mxCell>
        <mxCell id="SqqY0Kf9Ykl1BagwD4mv-21" value="" style="endArrow=none;html=1;rounded=0;entryX=0;entryY=0.75;entryDx=0;entryDy=0;exitX=1;exitY=0.5;exitDx=0;exitDy=0;" parent="1" source="SqqY0Kf9Ykl1BagwD4mv-8" target="SqqY0Kf9Ykl1BagwD4mv-1" edge="1">
          <mxGeometry width="50" height="50" relative="1" as="geometry">
            <mxPoint x="-210" y="250" as="sourcePoint" />
            <mxPoint x="-160" y="200" as="targetPoint" />
          </mxGeometry>
        </mxCell>
        <mxCell id="SqqY0Kf9Ykl1BagwD4mv-23" value="capacity" style="ellipse;whiteSpace=wrap;html=1;" parent="1" vertex="1">
          <mxGeometry x="370" y="40" width="90" height="60" as="geometry" />
        </mxCell>
        <mxCell id="SqqY0Kf9Ykl1BagwD4mv-24" value="economy" style="ellipse;whiteSpace=wrap;html=1;" parent="1" vertex="1">
          <mxGeometry x="485" y="90" width="80" height="50" as="geometry" />
        </mxCell>
        <mxCell id="SqqY0Kf9Ykl1BagwD4mv-25" value="Model" style="ellipse;whiteSpace=wrap;html=1;" parent="1" vertex="1">
          <mxGeometry x="265" y="30" width="70" height="50" as="geometry" />
        </mxCell>
        <mxCell id="SqqY0Kf9Ykl1BagwD4mv-28" value="&lt;u&gt;aircraft_id&lt;/u&gt;" style="ellipse;whiteSpace=wrap;html=1;" parent="1" vertex="1">
          <mxGeometry x="170" y="40" width="70" height="40" as="geometry" />
        </mxCell>
        <mxCell id="SqqY0Kf9Ykl1BagwD4mv-29" value="" style="endArrow=none;html=1;rounded=0;entryX=0.125;entryY=0;entryDx=0;entryDy=0;entryPerimeter=0;exitX=0.607;exitY=0.925;exitDx=0;exitDy=0;exitPerimeter=0;" parent="1" source="SqqY0Kf9Ykl1BagwD4mv-28" target="SqqY0Kf9Ykl1BagwD4mv-3" edge="1">
          <mxGeometry width="50" height="50" relative="1" as="geometry">
            <mxPoint x="230" y="80" as="sourcePoint" />
            <mxPoint x="255" y="150" as="targetPoint" />
          </mxGeometry>
        </mxCell>
        <mxCell id="SqqY0Kf9Ykl1BagwD4mv-31" value="" style="endArrow=none;html=1;rounded=0;entryX=0.5;entryY=1;entryDx=0;entryDy=0;exitX=0.375;exitY=0;exitDx=0;exitDy=0;exitPerimeter=0;" parent="1" source="SqqY0Kf9Ykl1BagwD4mv-3" target="SqqY0Kf9Ykl1BagwD4mv-25" edge="1">
          <mxGeometry width="50" height="50" relative="1" as="geometry">
            <mxPoint x="340" y="140" as="sourcePoint" />
            <mxPoint x="395" y="100" as="targetPoint" />
          </mxGeometry>
        </mxCell>
        <mxCell id="SqqY0Kf9Ykl1BagwD4mv-34" value="" style="endArrow=none;html=1;rounded=0;exitX=0.625;exitY=0;exitDx=0;exitDy=0;exitPerimeter=0;" parent="1" source="SqqY0Kf9Ykl1BagwD4mv-3" target="SqqY0Kf9Ykl1BagwD4mv-23" edge="1">
          <mxGeometry width="50" height="50" relative="1" as="geometry">
            <mxPoint x="375" y="195" as="sourcePoint" />
            <mxPoint x="425" y="145" as="targetPoint" />
          </mxGeometry>
        </mxCell>
        <mxCell id="SqqY0Kf9Ykl1BagwD4mv-36" value="Operates on" style="rhombus;whiteSpace=wrap;html=1;" parent="1" vertex="1">
          <mxGeometry x="40" y="170" width="120" height="80" as="geometry" />
        </mxCell>
        <mxCell id="SqqY0Kf9Ykl1BagwD4mv-37" value="airportName" style="ellipse;whiteSpace=wrap;html=1;" parent="1" vertex="1">
          <mxGeometry x="-150" y="470" width="80" height="50" as="geometry" />
        </mxCell>
        <mxCell id="SqqY0Kf9Ykl1BagwD4mv-38" value="cityName" style="ellipse;whiteSpace=wrap;html=1;" parent="1" vertex="1">
          <mxGeometry x="-240" y="470" width="70" height="50" as="geometry" />
        </mxCell>
        <mxCell id="SqqY0Kf9Ykl1BagwD4mv-39" value="&lt;u&gt;id&lt;/u&gt;" style="ellipse;whiteSpace=wrap;html=1;" parent="1" vertex="1">
          <mxGeometry x="-320" y="465" width="60" height="35" as="geometry" />
        </mxCell>
        <mxCell id="SqqY0Kf9Ykl1BagwD4mv-40" value="" style="endArrow=none;html=1;rounded=0;entryX=0.75;entryY=1;entryDx=0;entryDy=0;" parent="1" source="SqqY0Kf9Ykl1BagwD4mv-37" target="SqqY0Kf9Ykl1BagwD4mv-2" edge="1">
          <mxGeometry width="50" height="50" relative="1" as="geometry">
            <mxPoint x="-180" y="490" as="sourcePoint" />
            <mxPoint x="-130" y="440" as="targetPoint" />
          </mxGeometry>
        </mxCell>
        <mxCell id="SqqY0Kf9Ykl1BagwD4mv-41" value="" style="endArrow=none;html=1;rounded=0;exitX=0.5;exitY=0;exitDx=0;exitDy=0;entryX=0.336;entryY=1.046;entryDx=0;entryDy=0;entryPerimeter=0;" parent="1" source="SqqY0Kf9Ykl1BagwD4mv-38" target="SqqY0Kf9Ykl1BagwD4mv-2" edge="1">
          <mxGeometry width="50" height="50" relative="1" as="geometry">
            <mxPoint x="-230" y="490" as="sourcePoint" />
            <mxPoint x="-180" y="440" as="targetPoint" />
          </mxGeometry>
        </mxCell>
        <mxCell id="SqqY0Kf9Ykl1BagwD4mv-42" value="" style="endArrow=none;html=1;rounded=0;exitX=1;exitY=0;exitDx=0;exitDy=0;" parent="1" source="SqqY0Kf9Ykl1BagwD4mv-39" edge="1">
          <mxGeometry width="50" height="50" relative="1" as="geometry">
            <mxPoint x="-290" y="470" as="sourcePoint" />
            <mxPoint x="-240" y="420" as="targetPoint" />
          </mxGeometry>
        </mxCell>
        <mxCell id="SqqY0Kf9Ykl1BagwD4mv-43" value="Serves as" style="rhombus;whiteSpace=wrap;html=1;" parent="1" vertex="1">
          <mxGeometry x="-180" y="260" width="100" height="70" as="geometry" />
        </mxCell>
        <mxCell id="SqqY0Kf9Ykl1BagwD4mv-44" value="emailID" style="ellipse;whiteSpace=wrap;html=1;" parent="1" vertex="1">
          <mxGeometry x="565" y="308.5" width="90" height="60" as="geometry" />
        </mxCell>
        <mxCell id="SqqY0Kf9Ykl1BagwD4mv-45" value="&lt;u&gt;username&lt;/u&gt;" style="ellipse;whiteSpace=wrap;html=1;" parent="1" vertex="1">
          <mxGeometry x="390" y="465" width="70" height="50" as="geometry" />
        </mxCell>
        <mxCell id="SqqY0Kf9Ykl1BagwD4mv-47" value="mobileNo" style="ellipse;whiteSpace=wrap;html=1;" parent="1" vertex="1">
          <mxGeometry x="580" y="377" width="80" height="55" as="geometry" />
        </mxCell>
        <mxCell id="SqqY0Kf9Ykl1BagwD4mv-48" value="password" style="ellipse;whiteSpace=wrap;html=1;" parent="1" vertex="1">
          <mxGeometry x="470" y="465" width="80" height="50" as="geometry" />
        </mxCell>
        <mxCell id="SqqY0Kf9Ykl1BagwD4mv-49" value="" style="endArrow=none;html=1;rounded=0;entryX=0;entryY=0.5;entryDx=0;entryDy=0;" parent="1" target="SqqY0Kf9Ykl1BagwD4mv-44" edge="1">
          <mxGeometry width="50" height="50" relative="1" as="geometry">
            <mxPoint x="530" y="385" as="sourcePoint" />
            <mxPoint x="580" y="335" as="targetPoint" />
          </mxGeometry>
        </mxCell>
        <mxCell id="SqqY0Kf9Ykl1BagwD4mv-50" value="" style="endArrow=none;html=1;rounded=0;exitX=0;exitY=0.5;exitDx=0;exitDy=0;" parent="1" source="SqqY0Kf9Ykl1BagwD4mv-47" edge="1">
          <mxGeometry width="50" height="50" relative="1" as="geometry">
            <mxPoint x="480" y="445" as="sourcePoint" />
            <mxPoint x="530" y="395" as="targetPoint" />
          </mxGeometry>
        </mxCell>
        <mxCell id="SqqY0Kf9Ykl1BagwD4mv-51" value="" style="endArrow=none;html=1;rounded=0;exitX=0.41;exitY=0.002;exitDx=0;exitDy=0;exitPerimeter=0;" parent="1" source="SqqY0Kf9Ykl1BagwD4mv-48" edge="1">
          <mxGeometry width="50" height="50" relative="1" as="geometry">
            <mxPoint x="510" y="460" as="sourcePoint" />
            <mxPoint x="495" y="420" as="targetPoint" />
          </mxGeometry>
        </mxCell>
        <mxCell id="SqqY0Kf9Ykl1BagwD4mv-52" value="" style="endArrow=none;html=1;rounded=0;exitX=0.5;exitY=0;exitDx=0;exitDy=0;" parent="1" source="SqqY0Kf9Ykl1BagwD4mv-45" edge="1">
          <mxGeometry width="50" height="50" relative="1" as="geometry">
            <mxPoint x="395" y="470" as="sourcePoint" />
            <mxPoint x="445" y="420" as="targetPoint" />
          </mxGeometry>
        </mxCell>
        <mxCell id="SqqY0Kf9Ykl1BagwD4mv-64" value="noOfPeople" style="ellipse;whiteSpace=wrap;html=1;" parent="1" vertex="1">
          <mxGeometry x="10" y="410" width="90" height="60" as="geometry" />
        </mxCell>
        <mxCell id="SqqY0Kf9Ykl1BagwD4mv-65" value="&lt;u&gt;bookingID&lt;/u&gt;" style="ellipse;whiteSpace=wrap;html=1;" parent="1" vertex="1">
          <mxGeometry x="-20" y="340" width="90" height="60" as="geometry" />
        </mxCell>
        <mxCell id="SqqY0Kf9Ykl1BagwD4mv-67" value="" style="endArrow=none;html=1;rounded=0;exitX=0.5;exitY=0;exitDx=0;exitDy=0;entryX=0.5;entryY=0;entryDx=0;entryDy=0;" parent="1" source="mgOklXXdDkpK5PFEYkP--6" target="SqqY0Kf9Ykl1BagwD4mv-5" edge="1">
          <mxGeometry width="50" height="50" relative="1" as="geometry">
            <mxPoint x="175" y="250" as="sourcePoint" />
            <mxPoint x="115" y="392.82" as="targetPoint" />
          </mxGeometry>
        </mxCell>
        <mxCell id="SqqY0Kf9Ykl1BagwD4mv-68" value="" style="endArrow=none;html=1;rounded=0;exitX=1;exitY=0.5;exitDx=0;exitDy=0;entryX=0;entryY=0.5;entryDx=0;entryDy=0;" parent="1" source="SqqY0Kf9Ykl1BagwD4mv-65" target="SqqY0Kf9Ykl1BagwD4mv-5" edge="1">
          <mxGeometry width="50" height="50" relative="1" as="geometry">
            <mxPoint x="-10" y="422.82" as="sourcePoint" />
            <mxPoint x="40" y="372.82" as="targetPoint" />
          </mxGeometry>
        </mxCell>
        <mxCell id="SqqY0Kf9Ykl1BagwD4mv-69" value="" style="endArrow=none;html=1;rounded=0;exitX=0.936;exitY=0.269;exitDx=0;exitDy=0;entryX=0.087;entryY=1.013;entryDx=0;entryDy=0;exitPerimeter=0;entryPerimeter=0;" parent="1" source="SqqY0Kf9Ykl1BagwD4mv-64" target="SqqY0Kf9Ykl1BagwD4mv-5" edge="1">
          <mxGeometry width="50" height="50" relative="1" as="geometry">
            <mxPoint x="40" y="442.82" as="sourcePoint" />
            <mxPoint x="90" y="392.82" as="targetPoint" />
          </mxGeometry>
        </mxCell>
        <mxCell id="SqqY0Kf9Ykl1BagwD4mv-70" value="Makes" style="rhombus;whiteSpace=wrap;html=1;" parent="1" vertex="1">
          <mxGeometry x="270" y="340" width="110" height="80" as="geometry" />
        </mxCell>
        <mxCell id="SqqY0Kf9Ykl1BagwD4mv-71" value="Booked by" style="rhombus;whiteSpace=wrap;html=1;" parent="1" vertex="1">
          <mxGeometry x="-40" y="260" width="150" height="70" as="geometry" />
        </mxCell>
        <mxCell id="SqqY0Kf9Ykl1BagwD4mv-73" value="gender" style="ellipse;whiteSpace=wrap;html=1;" parent="1" vertex="1">
          <mxGeometry x="345" y="660" width="80" height="50" as="geometry" />
        </mxCell>
        <mxCell id="SqqY0Kf9Ykl1BagwD4mv-74" value="age" style="ellipse;whiteSpace=wrap;html=1;" parent="1" vertex="1">
          <mxGeometry x="270" y="670" width="60" height="50" as="geometry" />
        </mxCell>
        <mxCell id="SqqY0Kf9Ykl1BagwD4mv-75" value="name" style="ellipse;whiteSpace=wrap;html=1;" parent="1" vertex="1">
          <mxGeometry x="165" y="650" width="70" height="50" as="geometry" />
        </mxCell>
        <mxCell id="SqqY0Kf9Ykl1BagwD4mv-78" value="" style="endArrow=none;html=1;rounded=0;exitX=0.5;exitY=0;exitDx=0;exitDy=0;" parent="1" source="SqqY0Kf9Ykl1BagwD4mv-73" edge="1">
          <mxGeometry width="50" height="50" relative="1" as="geometry">
            <mxPoint x="310" y="690" as="sourcePoint" />
            <mxPoint x="360" y="640" as="targetPoint" />
          </mxGeometry>
        </mxCell>
        <mxCell id="SqqY0Kf9Ykl1BagwD4mv-79" value="" style="endArrow=none;html=1;rounded=0;exitX=0.5;exitY=0;exitDx=0;exitDy=0;entryX=0.43;entryY=1.025;entryDx=0;entryDy=0;entryPerimeter=0;" parent="1" source="SqqY0Kf9Ykl1BagwD4mv-74" target="SqqY0Kf9Ykl1BagwD4mv-6" edge="1">
          <mxGeometry width="50" height="50" relative="1" as="geometry">
            <mxPoint x="280" y="690" as="sourcePoint" />
            <mxPoint x="330" y="640" as="targetPoint" />
          </mxGeometry>
        </mxCell>
        <mxCell id="SqqY0Kf9Ykl1BagwD4mv-80" value="" style="endArrow=none;html=1;rounded=0;exitX=0.906;exitY=0.239;exitDx=0;exitDy=0;exitPerimeter=0;" parent="1" source="SqqY0Kf9Ykl1BagwD4mv-75" edge="1">
          <mxGeometry width="50" height="50" relative="1" as="geometry">
            <mxPoint x="230" y="690" as="sourcePoint" />
            <mxPoint x="280" y="640" as="targetPoint" />
          </mxGeometry>
        </mxCell>
        <mxCell id="SqqY0Kf9Ykl1BagwD4mv-82" value="" style="rhombus;whiteSpace=wrap;html=1;" parent="1" vertex="1">
          <mxGeometry x="240" y="455" width="140" height="80" as="geometry" />
        </mxCell>
        <mxCell id="SqqY0Kf9Ykl1BagwD4mv-93" value="" style="shape=link;html=1;rounded=0;entryX=0;entryY=0.5;entryDx=0;entryDy=0;exitX=1;exitY=0.5;exitDx=0;exitDy=0;" parent="1" source="SqqY0Kf9Ykl1BagwD4mv-36" target="SqqY0Kf9Ykl1BagwD4mv-3" edge="1">
          <mxGeometry relative="1" as="geometry">
            <mxPoint x="65" y="199.58" as="sourcePoint" />
            <mxPoint x="-55" y="199.58" as="targetPoint" />
          </mxGeometry>
        </mxCell>
        <mxCell id="SqqY0Kf9Ykl1BagwD4mv-94" value="1" style="resizable=0;html=1;whiteSpace=wrap;align=right;verticalAlign=bottom;" parent="SqqY0Kf9Ykl1BagwD4mv-93" connectable="0" vertex="1">
          <mxGeometry x="1" relative="1" as="geometry">
            <mxPoint x="-85" y="10" as="offset" />
          </mxGeometry>
        </mxCell>
        <mxCell id="SqqY0Kf9Ykl1BagwD4mv-95" value="" style="endArrow=none;html=1;rounded=0;entryX=1;entryY=0.5;entryDx=0;entryDy=0;exitX=0;exitY=0.5;exitDx=0;exitDy=0;" parent="1" source="SqqY0Kf9Ykl1BagwD4mv-36" target="SqqY0Kf9Ykl1BagwD4mv-1" edge="1">
          <mxGeometry relative="1" as="geometry">
            <mxPoint x="-10" y="250" as="sourcePoint" />
            <mxPoint x="150" y="250" as="targetPoint" />
          </mxGeometry>
        </mxCell>
        <mxCell id="SqqY0Kf9Ykl1BagwD4mv-96" value="N" style="resizable=0;html=1;whiteSpace=wrap;align=right;verticalAlign=bottom;" parent="SqqY0Kf9Ykl1BagwD4mv-95" connectable="0" vertex="1">
          <mxGeometry x="1" relative="1" as="geometry">
            <mxPoint x="90" as="offset" />
          </mxGeometry>
        </mxCell>
        <mxCell id="SqqY0Kf9Ykl1BagwD4mv-99" value="" style="shape=link;html=1;rounded=0;entryX=0.75;entryY=1;entryDx=0;entryDy=0;exitX=0;exitY=0.5;exitDx=0;exitDy=0;" parent="1" source="SqqY0Kf9Ykl1BagwD4mv-71" target="SqqY0Kf9Ykl1BagwD4mv-1" edge="1">
          <mxGeometry relative="1" as="geometry">
            <mxPoint x="80" y="260" as="sourcePoint" />
            <mxPoint x="240" y="260" as="targetPoint" />
          </mxGeometry>
        </mxCell>
        <mxCell id="SqqY0Kf9Ykl1BagwD4mv-100" value="1" style="resizable=0;html=1;whiteSpace=wrap;align=right;verticalAlign=bottom;" parent="SqqY0Kf9Ykl1BagwD4mv-99" connectable="0" vertex="1">
          <mxGeometry x="1" relative="1" as="geometry">
            <mxPoint x="45" y="60" as="offset" />
          </mxGeometry>
        </mxCell>
        <mxCell id="SqqY0Kf9Ykl1BagwD4mv-101" value="" style="endArrow=none;html=1;rounded=0;entryX=0.167;entryY=0;entryDx=0;entryDy=0;entryPerimeter=0;exitX=1;exitY=0.5;exitDx=0;exitDy=0;" parent="1" source="SqqY0Kf9Ykl1BagwD4mv-71" target="SqqY0Kf9Ykl1BagwD4mv-5" edge="1">
          <mxGeometry relative="1" as="geometry">
            <mxPoint x="110" y="290" as="sourcePoint" />
            <mxPoint x="240" y="300" as="targetPoint" />
          </mxGeometry>
        </mxCell>
        <mxCell id="SqqY0Kf9Ykl1BagwD4mv-102" value="N" style="resizable=0;html=1;whiteSpace=wrap;align=right;verticalAlign=bottom;" parent="SqqY0Kf9Ykl1BagwD4mv-101" connectable="0" vertex="1">
          <mxGeometry x="1" relative="1" as="geometry">
            <mxPoint x="-10" y="-31" as="offset" />
          </mxGeometry>
        </mxCell>
        <mxCell id="SqqY0Kf9Ykl1BagwD4mv-103" value="" style="shape=link;html=1;rounded=0;entryX=0;entryY=0.5;entryDx=0;entryDy=0;exitX=1;exitY=0.5;exitDx=0;exitDy=0;" parent="1" source="SqqY0Kf9Ykl1BagwD4mv-70" target="SqqY0Kf9Ykl1BagwD4mv-4" edge="1">
          <mxGeometry relative="1" as="geometry">
            <mxPoint x="110" y="360" as="sourcePoint" />
            <mxPoint x="270" y="360" as="targetPoint" />
          </mxGeometry>
        </mxCell>
        <mxCell id="SqqY0Kf9Ykl1BagwD4mv-104" value="1" style="resizable=0;html=1;whiteSpace=wrap;align=right;verticalAlign=bottom;" parent="SqqY0Kf9Ykl1BagwD4mv-103" connectable="0" vertex="1">
          <mxGeometry x="1" relative="1" as="geometry">
            <mxPoint x="-20" y="-20" as="offset" />
          </mxGeometry>
        </mxCell>
        <mxCell id="SqqY0Kf9Ykl1BagwD4mv-105" value="" style="endArrow=none;html=1;rounded=0;entryX=0;entryY=0.5;entryDx=0;entryDy=0;exitX=1;exitY=0.5;exitDx=0;exitDy=0;" parent="1" source="SqqY0Kf9Ykl1BagwD4mv-5" target="SqqY0Kf9Ykl1BagwD4mv-70" edge="1">
          <mxGeometry relative="1" as="geometry">
            <mxPoint x="200" y="420" as="sourcePoint" />
            <mxPoint x="340" y="420" as="targetPoint" />
          </mxGeometry>
        </mxCell>
        <mxCell id="SqqY0Kf9Ykl1BagwD4mv-106" value="N" style="resizable=0;html=1;whiteSpace=wrap;align=right;verticalAlign=bottom;" parent="SqqY0Kf9Ykl1BagwD4mv-105" connectable="0" vertex="1">
          <mxGeometry x="1" relative="1" as="geometry">
            <mxPoint y="-10" as="offset" />
          </mxGeometry>
        </mxCell>
        <mxCell id="SqqY0Kf9Ykl1BagwD4mv-107" value="" style="endArrow=none;html=1;rounded=0;entryX=0.5;entryY=1;entryDx=0;entryDy=0;exitX=0.5;exitY=0;exitDx=0;exitDy=0;" parent="1" source="SqqY0Kf9Ykl1BagwD4mv-2" target="SqqY0Kf9Ykl1BagwD4mv-43" edge="1">
          <mxGeometry relative="1" as="geometry">
            <mxPoint x="200" y="420" as="sourcePoint" />
            <mxPoint x="360" y="420" as="targetPoint" />
          </mxGeometry>
        </mxCell>
        <mxCell id="SqqY0Kf9Ykl1BagwD4mv-108" value="N" style="resizable=0;html=1;whiteSpace=wrap;align=right;verticalAlign=bottom;" parent="SqqY0Kf9Ykl1BagwD4mv-107" connectable="0" vertex="1">
          <mxGeometry x="1" relative="1" as="geometry">
            <mxPoint x="-20" y="20" as="offset" />
          </mxGeometry>
        </mxCell>
        <mxCell id="SqqY0Kf9Ykl1BagwD4mv-109" value="" style="shape=link;html=1;rounded=0;entryX=0.5;entryY=1;entryDx=0;entryDy=0;exitX=0.5;exitY=0;exitDx=0;exitDy=0;" parent="1" source="SqqY0Kf9Ykl1BagwD4mv-43" target="SqqY0Kf9Ykl1BagwD4mv-1" edge="1">
          <mxGeometry relative="1" as="geometry">
            <mxPoint x="-190" y="330" as="sourcePoint" />
            <mxPoint x="-30" y="330" as="targetPoint" />
          </mxGeometry>
        </mxCell>
        <mxCell id="SqqY0Kf9Ykl1BagwD4mv-110" value="M" style="resizable=0;html=1;whiteSpace=wrap;align=right;verticalAlign=bottom;" parent="SqqY0Kf9Ykl1BagwD4mv-109" connectable="0" vertex="1">
          <mxGeometry x="1" relative="1" as="geometry">
            <mxPoint x="-20" y="30" as="offset" />
          </mxGeometry>
        </mxCell>
        <mxCell id="SqqY0Kf9Ykl1BagwD4mv-111" value="" style="shape=link;html=1;rounded=0;entryX=0.5;entryY=0;entryDx=0;entryDy=0;exitX=0.5;exitY=1;exitDx=0;exitDy=0;" parent="1" source="SqqY0Kf9Ykl1BagwD4mv-82" target="SqqY0Kf9Ykl1BagwD4mv-6" edge="1">
          <mxGeometry relative="1" as="geometry">
            <mxPoint x="190" y="520" as="sourcePoint" />
            <mxPoint x="350" y="520" as="targetPoint" />
          </mxGeometry>
        </mxCell>
        <mxCell id="SqqY0Kf9Ykl1BagwD4mv-112" value="N" style="resizable=0;html=1;whiteSpace=wrap;align=right;verticalAlign=bottom;" parent="SqqY0Kf9Ykl1BagwD4mv-111" connectable="0" vertex="1">
          <mxGeometry x="1" relative="1" as="geometry">
            <mxPoint x="15" y="-30" as="offset" />
          </mxGeometry>
        </mxCell>
        <mxCell id="ug9svsrQwbY7hf-2ztQl-3" value="" style="endArrow=none;html=1;rounded=0;entryX=0.4;entryY=0.98;entryDx=0;entryDy=0;entryPerimeter=0;" parent="1" target="SqqY0Kf9Ykl1BagwD4mv-9" edge="1">
          <mxGeometry width="50" height="50" relative="1" as="geometry">
            <mxPoint x="-120" y="160" as="sourcePoint" />
            <mxPoint x="-70" y="110" as="targetPoint" />
          </mxGeometry>
        </mxCell>
        <mxCell id="ug9svsrQwbY7hf-2ztQl-4" value="" style="endArrow=none;html=1;rounded=0;" parent="1" target="SqqY0Kf9Ykl1BagwD4mv-11" edge="1">
          <mxGeometry width="50" height="50" relative="1" as="geometry">
            <mxPoint x="-100" y="160" as="sourcePoint" />
            <mxPoint x="-90" y="130" as="targetPoint" />
          </mxGeometry>
        </mxCell>
        <mxCell id="ug9svsrQwbY7hf-2ztQl-5" value="" style="endArrow=none;html=1;rounded=0;entryX=0.35;entryY=0.967;entryDx=0;entryDy=0;entryPerimeter=0;" parent="1" target="SqqY0Kf9Ykl1BagwD4mv-10" edge="1">
          <mxGeometry width="50" height="50" relative="1" as="geometry">
            <mxPoint x="-70" y="160" as="sourcePoint" />
            <mxPoint x="-20" y="110" as="targetPoint" />
          </mxGeometry>
        </mxCell>
        <mxCell id="ug9svsrQwbY7hf-2ztQl-6" value="" style="endArrow=none;html=1;rounded=0;entryX=0;entryY=1;entryDx=0;entryDy=0;" parent="1" target="SqqY0Kf9Ykl1BagwD4mv-14" edge="1">
          <mxGeometry width="50" height="50" relative="1" as="geometry">
            <mxPoint x="-50" y="170" as="sourcePoint" />
            <mxPoint y="120" as="targetPoint" />
          </mxGeometry>
        </mxCell>
        <mxCell id="ug9svsrQwbY7hf-2ztQl-7" value="Monday" style="ellipse;whiteSpace=wrap;html=1;" parent="1" vertex="1">
          <mxGeometry x="-285" y="-40" width="70" height="50" as="geometry" />
        </mxCell>
        <mxCell id="ug9svsrQwbY7hf-2ztQl-8" value="Tuesday" style="ellipse;whiteSpace=wrap;html=1;" parent="1" vertex="1">
          <mxGeometry x="-260" y="-90" width="70" height="50" as="geometry" />
        </mxCell>
        <mxCell id="ug9svsrQwbY7hf-2ztQl-9" value="Thursday" style="ellipse;whiteSpace=wrap;html=1;" parent="1" vertex="1">
          <mxGeometry x="-165" y="-160" width="70" height="50" as="geometry" />
        </mxCell>
        <mxCell id="ug9svsrQwbY7hf-2ztQl-10" value="Wednesday" style="ellipse;whiteSpace=wrap;html=1;" parent="1" vertex="1">
          <mxGeometry x="-240" y="-140" width="75" height="50" as="geometry" />
        </mxCell>
        <mxCell id="ug9svsrQwbY7hf-2ztQl-11" value="Friday" style="ellipse;whiteSpace=wrap;html=1;" parent="1" vertex="1">
          <mxGeometry x="-95" y="-130" width="70" height="50" as="geometry" />
        </mxCell>
        <mxCell id="ug9svsrQwbY7hf-2ztQl-12" value="Saturday" style="ellipse;whiteSpace=wrap;html=1;" parent="1" vertex="1">
          <mxGeometry x="-50" y="-90" width="70" height="50" as="geometry" />
        </mxCell>
        <mxCell id="ug9svsrQwbY7hf-2ztQl-13" value="Sunday" style="ellipse;whiteSpace=wrap;html=1;" parent="1" vertex="1">
          <mxGeometry x="-35" y="-40" width="75" height="50" as="geometry" />
        </mxCell>
        <mxCell id="ug9svsrQwbY7hf-2ztQl-14" value="" style="endArrow=none;html=1;rounded=0;entryX=0;entryY=0.5;entryDx=0;entryDy=0;exitX=1;exitY=0.5;exitDx=0;exitDy=0;" parent="1" source="ug9svsrQwbY7hf-2ztQl-7" target="SqqY0Kf9Ykl1BagwD4mv-9" edge="1">
          <mxGeometry width="50" height="50" relative="1" as="geometry">
            <mxPoint x="-200" y="-10" as="sourcePoint" />
            <mxPoint x="-170" y="-50" as="targetPoint" />
          </mxGeometry>
        </mxCell>
        <mxCell id="ug9svsrQwbY7hf-2ztQl-16" value="" style="endArrow=none;html=1;rounded=0;exitX=1;exitY=0.5;exitDx=0;exitDy=0;entryX=0.063;entryY=0.24;entryDx=0;entryDy=0;entryPerimeter=0;" parent="1" source="ug9svsrQwbY7hf-2ztQl-8" target="SqqY0Kf9Ykl1BagwD4mv-9" edge="1">
          <mxGeometry width="50" height="50" relative="1" as="geometry">
            <mxPoint x="-180" y="-40" as="sourcePoint" />
            <mxPoint x="-160" y="-46" as="targetPoint" />
          </mxGeometry>
        </mxCell>
        <mxCell id="ug9svsrQwbY7hf-2ztQl-17" value="" style="endArrow=none;html=1;rounded=0;entryX=1;entryY=1;entryDx=0;entryDy=0;" parent="1" source="SqqY0Kf9Ykl1BagwD4mv-9" target="ug9svsrQwbY7hf-2ztQl-10" edge="1">
          <mxGeometry width="50" height="50" relative="1" as="geometry">
            <mxPoint x="-140" y="-50" as="sourcePoint" />
            <mxPoint x="-90" y="-100" as="targetPoint" />
          </mxGeometry>
        </mxCell>
        <mxCell id="ug9svsrQwbY7hf-2ztQl-18" value="" style="endArrow=none;html=1;rounded=0;entryX=0.5;entryY=1;entryDx=0;entryDy=0;exitX=0.442;exitY=0.013;exitDx=0;exitDy=0;exitPerimeter=0;" parent="1" source="SqqY0Kf9Ykl1BagwD4mv-9" target="ug9svsrQwbY7hf-2ztQl-9" edge="1">
          <mxGeometry width="50" height="50" relative="1" as="geometry">
            <mxPoint x="-130" y="-70" as="sourcePoint" />
            <mxPoint x="-80" y="-120" as="targetPoint" />
          </mxGeometry>
        </mxCell>
        <mxCell id="ug9svsrQwbY7hf-2ztQl-20" value="" style="endArrow=none;html=1;rounded=0;exitX=0.675;exitY=0.033;exitDx=0;exitDy=0;exitPerimeter=0;entryX=0;entryY=1;entryDx=0;entryDy=0;" parent="1" source="SqqY0Kf9Ykl1BagwD4mv-9" target="ug9svsrQwbY7hf-2ztQl-11" edge="1">
          <mxGeometry width="50" height="50" relative="1" as="geometry">
            <mxPoint x="-110" y="-50" as="sourcePoint" />
            <mxPoint x="-60" y="-100" as="targetPoint" />
          </mxGeometry>
        </mxCell>
        <mxCell id="ug9svsrQwbY7hf-2ztQl-22" value="" style="endArrow=none;html=1;rounded=0;exitX=1;exitY=0.4;exitDx=0;exitDy=0;exitPerimeter=0;" parent="1" source="SqqY0Kf9Ykl1BagwD4mv-9" edge="1">
          <mxGeometry width="50" height="50" relative="1" as="geometry">
            <mxPoint x="-100" y="-10" as="sourcePoint" />
            <mxPoint x="-50" y="-60" as="targetPoint" />
          </mxGeometry>
        </mxCell>
        <mxCell id="ug9svsrQwbY7hf-2ztQl-23" value="" style="endArrow=none;html=1;rounded=0;entryX=0;entryY=0.46;entryDx=0;entryDy=0;entryPerimeter=0;" parent="1" source="SqqY0Kf9Ykl1BagwD4mv-9" target="ug9svsrQwbY7hf-2ztQl-13" edge="1">
          <mxGeometry width="50" height="50" relative="1" as="geometry">
            <mxPoint x="-90" y="20" as="sourcePoint" />
            <mxPoint x="-40" y="-20" as="targetPoint" />
          </mxGeometry>
        </mxCell>
        <mxCell id="ug9svsrQwbY7hf-2ztQl-24" value="aircraft_id" style="ellipse;whiteSpace=wrap;html=1;" parent="1" vertex="1">
          <mxGeometry x="-350" y="140" width="70" height="50" as="geometry" />
        </mxCell>
        <mxCell id="ug9svsrQwbY7hf-2ztQl-25" value="" style="endArrow=none;html=1;rounded=0;entryX=0;entryY=0.5;entryDx=0;entryDy=0;exitX=0.969;exitY=0.64;exitDx=0;exitDy=0;exitPerimeter=0;" parent="1" source="ug9svsrQwbY7hf-2ztQl-24" target="SqqY0Kf9Ykl1BagwD4mv-1" edge="1">
          <mxGeometry width="50" height="50" relative="1" as="geometry">
            <mxPoint x="-380" y="270" as="sourcePoint" />
            <mxPoint x="-330" y="220" as="targetPoint" />
          </mxGeometry>
        </mxCell>
        <mxCell id="ug9svsrQwbY7hf-2ztQl-27" value="firstName" style="ellipse;whiteSpace=wrap;html=1;" parent="1" vertex="1">
          <mxGeometry x="425" y="271.5" width="70" height="47" as="geometry" />
        </mxCell>
        <mxCell id="ug9svsrQwbY7hf-2ztQl-28" value="lastName" style="ellipse;whiteSpace=wrap;html=1;" parent="1" vertex="1">
          <mxGeometry x="520" y="258.5" width="70" height="50" as="geometry" />
        </mxCell>
        <mxCell id="ug9svsrQwbY7hf-2ztQl-29" value="" style="endArrow=none;html=1;rounded=0;exitX=0.417;exitY=0;exitDx=0;exitDy=0;exitPerimeter=0;entryX=0.537;entryY=1.017;entryDx=0;entryDy=0;entryPerimeter=0;" parent="1" source="SqqY0Kf9Ykl1BagwD4mv-4" target="ug9svsrQwbY7hf-2ztQl-27" edge="1">
          <mxGeometry width="50" height="50" relative="1" as="geometry">
            <mxPoint x="420" y="370" as="sourcePoint" />
            <mxPoint x="460" y="310" as="targetPoint" />
          </mxGeometry>
        </mxCell>
        <mxCell id="ug9svsrQwbY7hf-2ztQl-30" value="" style="endArrow=none;html=1;rounded=0;entryX=0.243;entryY=0.917;entryDx=0;entryDy=0;entryPerimeter=0;" parent="1" target="ug9svsrQwbY7hf-2ztQl-28" edge="1">
          <mxGeometry width="50" height="50" relative="1" as="geometry">
            <mxPoint x="490" y="360" as="sourcePoint" />
            <mxPoint x="540" y="310" as="targetPoint" />
          </mxGeometry>
        </mxCell>
        <mxCell id="ug9svsrQwbY7hf-2ztQl-33" value="flightID" style="ellipse;whiteSpace=wrap;html=1;" parent="1" vertex="1">
          <mxGeometry x="190" y="432" width="70" height="48" as="geometry" />
        </mxCell>
        <mxCell id="ug9svsrQwbY7hf-2ztQl-34" value="" style="endArrow=none;html=1;rounded=0;" parent="1" source="ug9svsrQwbY7hf-2ztQl-33" edge="1">
          <mxGeometry width="50" height="50" relative="1" as="geometry">
            <mxPoint x="130" y="450" as="sourcePoint" />
            <mxPoint x="180" y="400" as="targetPoint" />
          </mxGeometry>
        </mxCell>
        <mxCell id="ug9svsrQwbY7hf-2ztQl-35" value="username" style="ellipse;whiteSpace=wrap;html=1;" parent="1" vertex="1">
          <mxGeometry x="197.5" y="285" width="80" height="45" as="geometry" />
        </mxCell>
        <mxCell id="ug9svsrQwbY7hf-2ztQl-36" value="" style="endArrow=none;html=1;rounded=0;entryX=0.378;entryY=0.979;entryDx=0;entryDy=0;entryPerimeter=0;exitX=0.869;exitY=-0.007;exitDx=0;exitDy=0;exitPerimeter=0;" parent="1" source="SqqY0Kf9Ykl1BagwD4mv-5" target="ug9svsrQwbY7hf-2ztQl-35" edge="1">
          <mxGeometry width="50" height="50" relative="1" as="geometry">
            <mxPoint x="240" y="340" as="sourcePoint" />
            <mxPoint x="290" y="290" as="targetPoint" />
          </mxGeometry>
        </mxCell>
        <mxCell id="ug9svsrQwbY7hf-2ztQl-37" value="business" style="ellipse;whiteSpace=wrap;html=1;" parent="1" vertex="1">
          <mxGeometry x="495" y="20" width="80" height="50" as="geometry" />
        </mxCell>
        <mxCell id="ug9svsrQwbY7hf-2ztQl-38" value="" style="endArrow=none;html=1;rounded=0;" parent="1" target="ug9svsrQwbY7hf-2ztQl-37" edge="1">
          <mxGeometry width="50" height="50" relative="1" as="geometry">
            <mxPoint x="460" y="60" as="sourcePoint" />
            <mxPoint x="510" y="10" as="targetPoint" />
          </mxGeometry>
        </mxCell>
        <mxCell id="ug9svsrQwbY7hf-2ztQl-40" value="" style="endArrow=none;html=1;rounded=0;exitX=1;exitY=1;exitDx=0;exitDy=0;entryX=0;entryY=0.5;entryDx=0;entryDy=0;" parent="1" source="SqqY0Kf9Ykl1BagwD4mv-23" target="SqqY0Kf9Ykl1BagwD4mv-24" edge="1">
          <mxGeometry width="50" height="50" relative="1" as="geometry">
            <mxPoint x="420" y="170" as="sourcePoint" />
            <mxPoint x="470" y="120" as="targetPoint" />
          </mxGeometry>
        </mxCell>
        <mxCell id="ug9svsrQwbY7hf-2ztQl-41" value="gender" style="ellipse;whiteSpace=wrap;html=1;" parent="1" vertex="1">
          <mxGeometry x="565" y="450" width="85" height="50" as="geometry" />
        </mxCell>
        <mxCell id="ug9svsrQwbY7hf-2ztQl-42" value="age" style="ellipse;whiteSpace=wrap;html=1;" parent="1" vertex="1">
          <mxGeometry x="380" y="293.5" width="40" height="36.5" as="geometry" />
        </mxCell>
        <mxCell id="ug9svsrQwbY7hf-2ztQl-43" value="" style="endArrow=none;html=1;rounded=0;exitX=1;exitY=1;exitDx=0;exitDy=0;entryX=0.171;entryY=0.108;entryDx=0;entryDy=0;entryPerimeter=0;" parent="1" source="SqqY0Kf9Ykl1BagwD4mv-4" target="ug9svsrQwbY7hf-2ztQl-41" edge="1">
          <mxGeometry width="50" height="50" relative="1" as="geometry">
            <mxPoint x="540" y="480" as="sourcePoint" />
            <mxPoint x="590" y="430" as="targetPoint" />
          </mxGeometry>
        </mxCell>
        <mxCell id="ug9svsrQwbY7hf-2ztQl-44" value="" style="endArrow=none;html=1;rounded=0;exitX=0.793;exitY=0.889;exitDx=0;exitDy=0;exitPerimeter=0;entryX=0.167;entryY=0;entryDx=0;entryDy=0;entryPerimeter=0;" parent="1" source="ug9svsrQwbY7hf-2ztQl-42" target="SqqY0Kf9Ykl1BagwD4mv-4" edge="1">
          <mxGeometry width="50" height="50" relative="1" as="geometry">
            <mxPoint x="420" y="360" as="sourcePoint" />
            <mxPoint x="470" y="310" as="targetPoint" />
          </mxGeometry>
        </mxCell>
        <mxCell id="ug9svsrQwbY7hf-2ztQl-45" value="addons" style="ellipse;whiteSpace=wrap;html=1;" parent="1" vertex="1">
          <mxGeometry x="60" y="484" width="80" height="48" as="geometry" />
        </mxCell>
        <mxCell id="ug9svsrQwbY7hf-2ztQl-46" value="" style="endArrow=none;html=1;rounded=0;entryX=0.359;entryY=0.993;entryDx=0;entryDy=0;entryPerimeter=0;exitX=0.612;exitY=0.015;exitDx=0;exitDy=0;exitPerimeter=0;" parent="1" source="ug9svsrQwbY7hf-2ztQl-45" target="SqqY0Kf9Ykl1BagwD4mv-5" edge="1">
          <mxGeometry width="50" height="50" relative="1" as="geometry">
            <mxPoint x="110" y="460" as="sourcePoint" />
            <mxPoint x="160" y="410" as="targetPoint" />
          </mxGeometry>
        </mxCell>
        <mxCell id="ug9svsrQwbY7hf-2ztQl-48" value="food" style="ellipse;whiteSpace=wrap;html=1;" parent="1" vertex="1">
          <mxGeometry y="560" width="75" height="40" as="geometry" />
        </mxCell>
        <mxCell id="ug9svsrQwbY7hf-2ztQl-49" value="luggage" style="ellipse;whiteSpace=wrap;html=1;" parent="1" vertex="1">
          <mxGeometry x="30" y="615" width="80" height="45" as="geometry" />
        </mxCell>
        <mxCell id="ug9svsrQwbY7hf-2ztQl-50" value="" style="endArrow=none;html=1;rounded=0;entryX=0.5;entryY=1;entryDx=0;entryDy=0;exitX=0.5;exitY=0;exitDx=0;exitDy=0;" parent="1" source="ug9svsrQwbY7hf-2ztQl-49" target="ug9svsrQwbY7hf-2ztQl-45" edge="1">
          <mxGeometry width="50" height="50" relative="1" as="geometry">
            <mxPoint x="40" y="560" as="sourcePoint" />
            <mxPoint x="70" y="530" as="targetPoint" />
          </mxGeometry>
        </mxCell>
        <mxCell id="ug9svsrQwbY7hf-2ztQl-51" value="" style="endArrow=none;html=1;rounded=0;entryX=0;entryY=1;entryDx=0;entryDy=0;" parent="1" source="ug9svsrQwbY7hf-2ztQl-48" target="ug9svsrQwbY7hf-2ztQl-45" edge="1">
          <mxGeometry width="50" height="50" relative="1" as="geometry">
            <mxPoint x="30" y="550" as="sourcePoint" />
            <mxPoint x="80" y="500" as="targetPoint" />
          </mxGeometry>
        </mxCell>
        <mxCell id="mgOklXXdDkpK5PFEYkP--1" value="details added" style="rhombus;whiteSpace=wrap;html=1;" parent="1" vertex="1">
          <mxGeometry x="250" y="460" width="120" height="70" as="geometry" />
        </mxCell>
        <mxCell id="mgOklXXdDkpK5PFEYkP--2" value="date" style="ellipse;whiteSpace=wrap;html=1;" parent="1" vertex="1">
          <mxGeometry x="147.5" y="482" width="65" height="38" as="geometry" />
        </mxCell>
        <mxCell id="mgOklXXdDkpK5PFEYkP--3" value="" style="endArrow=none;html=1;rounded=0;entryX=0.413;entryY=0.992;entryDx=0;entryDy=0;entryPerimeter=0;exitX=0.5;exitY=0;exitDx=0;exitDy=0;" parent="1" source="mgOklXXdDkpK5PFEYkP--2" target="SqqY0Kf9Ykl1BagwD4mv-5" edge="1">
          <mxGeometry width="50" height="50" relative="1" as="geometry">
            <mxPoint x="380" y="520" as="sourcePoint" />
            <mxPoint x="430" y="470" as="targetPoint" />
          </mxGeometry>
        </mxCell>
        <mxCell id="mgOklXXdDkpK5PFEYkP--4" value="&lt;u&gt;passengerNo&lt;/u&gt;" style="ellipse;whiteSpace=wrap;html=1;" parent="1" vertex="1">
          <mxGeometry x="132.5" y="585" width="87.5" height="50" as="geometry" />
        </mxCell>
        <mxCell id="mgOklXXdDkpK5PFEYkP--5" value="" style="endArrow=none;html=1;rounded=0;exitX=1;exitY=0.5;exitDx=0;exitDy=0;entryX=0;entryY=0.5;entryDx=0;entryDy=0;" parent="1" source="mgOklXXdDkpK5PFEYkP--4" target="SqqY0Kf9Ykl1BagwD4mv-6" edge="1">
          <mxGeometry width="50" height="50" relative="1" as="geometry">
            <mxPoint x="220" y="650" as="sourcePoint" />
            <mxPoint x="270" y="600" as="targetPoint" />
          </mxGeometry>
        </mxCell>
        <mxCell id="mgOklXXdDkpK5PFEYkP--7" value="" style="endArrow=none;html=1;rounded=0;exitX=0.5;exitY=0;exitDx=0;exitDy=0;entryX=0.5;entryY=0;entryDx=0;entryDy=0;" parent="1" target="mgOklXXdDkpK5PFEYkP--6" edge="1">
          <mxGeometry width="50" height="50" relative="1" as="geometry">
            <mxPoint x="175" y="250" as="sourcePoint" />
            <mxPoint x="180" y="340" as="targetPoint" />
          </mxGeometry>
        </mxCell>
        <mxCell id="mgOklXXdDkpK5PFEYkP--6" value="amount" style="ellipse;whiteSpace=wrap;html=1;" parent="1" vertex="1">
          <mxGeometry x="132.5" y="243" width="100" height="42" as="geometry" />
        </mxCell>
        <mxCell id="mgOklXXdDkpK5PFEYkP--8" value="seatClass" style="ellipse;whiteSpace=wrap;html=1;" parent="1" vertex="1">
          <mxGeometry x="277.5" y="247.5" width="95" height="46" as="geometry" />
        </mxCell>
        <mxCell id="mgOklXXdDkpK5PFEYkP--9" value="" style="endArrow=none;html=1;rounded=0;exitX=1.011;exitY=0.186;exitDx=0;exitDy=0;exitPerimeter=0;entryX=0.374;entryY=0.964;entryDx=0;entryDy=0;entryPerimeter=0;" parent="1" source="SqqY0Kf9Ykl1BagwD4mv-5" target="mgOklXXdDkpK5PFEYkP--8" edge="1">
          <mxGeometry width="50" height="50" relative="1" as="geometry">
            <mxPoint x="250" y="460" as="sourcePoint" />
            <mxPoint x="300" y="410" as="targetPoint" />
          </mxGeometry>
        </mxCell>
        <mxCell id="vIq6OVX7RCNRDXultVes-1" value="Adults&amp;nbsp;" style="ellipse;whiteSpace=wrap;html=1;" parent="1" vertex="1">
          <mxGeometry x="-20" y="484" width="60" height="40" as="geometry" />
        </mxCell>
        <mxCell id="vIq6OVX7RCNRDXultVes-2" value="Children&amp;nbsp;" style="ellipse;whiteSpace=wrap;html=1;" parent="1" vertex="1">
          <mxGeometry x="-70" y="415" width="65" height="50" as="geometry" />
        </mxCell>
        <mxCell id="vIq6OVX7RCNRDXultVes-3" value="" style="endArrow=none;html=1;rounded=0;entryX=0;entryY=0.5;entryDx=0;entryDy=0;exitX=1;exitY=0.5;exitDx=0;exitDy=0;" parent="1" source="vIq6OVX7RCNRDXultVes-2" target="SqqY0Kf9Ykl1BagwD4mv-64" edge="1">
          <mxGeometry width="50" height="50" relative="1" as="geometry">
            <mxPoint x="-95" y="427" as="sourcePoint" />
            <mxPoint x="-45" y="377" as="targetPoint" />
          </mxGeometry>
        </mxCell>
        <mxCell id="vIq6OVX7RCNRDXultVes-4" value="" style="endArrow=none;html=1;rounded=0;exitX=0.5;exitY=0;exitDx=0;exitDy=0;entryX=0.307;entryY=0.983;entryDx=0;entryDy=0;entryPerimeter=0;" parent="1" source="vIq6OVX7RCNRDXultVes-1" target="SqqY0Kf9Ykl1BagwD4mv-64" edge="1">
          <mxGeometry width="50" height="50" relative="1" as="geometry">
            <mxPoint x="-10" y="520" as="sourcePoint" />
            <mxPoint x="40" y="470" as="targetPoint" />
          </mxGeometry>
        </mxCell>
      </root>
    </mxGraphModel>
  </diagram>
</mxfile>
